<svg xmlns="http://www.w3.org/2000/svg" width="1312" height="736" viewBox="0 0 1312 736" role="img" aria-labelledby="title desc">
  <title id="title">Contractor project cover</title>
  <desc id="desc">A quiet dark interface cover for an AI document generator for freelancers.</desc>
  <defs>
    <linearGradient id="bg" x1="0" y1="0" x2="1" y2="1">
      <stop offset="0" stop-color="#111318"/>
      <stop offset="0.55" stop-color="#17181f"/>
      <stop offset="1" stop-color="#231b16"/>
    </linearGradient>
    <linearGradient id="paper" x1="0" y1="0" x2="0" y2="1">
      <stop offset="0" stop-color="#fff7e8"/>
      <stop offset="1" stop-color="#ead9bd"/>
    </linearGradient>
    <filter id="soft" x="-20%" y="-20%" width="140%" height="140%">
      <feDropShadow dx="0" dy="22" stdDeviation="28" flood-color="#000000" flood-opacity="0.35"/>
    </filter>
  </defs>
  <rect width="1312" height="736" fill="url(#bg)"/>
  <path d="M0 620 C220 540 306 680 526 610 C762 536 878 638 1312 502 L1312 736 L0 736 Z" fill="#d59752" opacity="0.13"/>
  <g opacity="0.12" stroke="#f4c88f" stroke-width="1">
    <path d="M112 96 H1200"/>
    <path d="M112 184 H1200"/>
    <path d="M112 272 H1200"/>
    <path d="M112 360 H1200"/>
    <path d="M112 448 H1200"/>
    <path d="M112 536 H1200"/>
  </g>
  <g transform="translate(148 116)">
    <text x="0" y="0" fill="#f5d6a7" font-family="Inter, Arial, sans-serif" font-size="18" font-weight="700" letter-spacing="5">AI DOCUMENTS</text>
    <text x="0" y="76" fill="#fff4df" font-family="Inter, Arial, sans-serif" font-size="88" font-weight="800" letter-spacing="-4">Contractor</text>
    <text x="4" y="124" fill="#d9c2a0" font-family="Inter, Arial, sans-serif" font-size="28" font-weight="500">Quotes, contracts, and work orders with Hebrew RTL support.</text>
  </g>
  <g transform="translate(696 104)" filter="url(#soft)">
    <rect x="0" y="0" width="430" height="540" rx="28" fill="url(#paper)"/>
    <rect x="46" y="58" width="142" height="18" rx="9" fill="#202126" opacity="0.75"/>
    <rect x="46" y="106" width="332" height="10" rx="5" fill="#8f7758" opacity="0.55"/>
    <rect x="46" y="132" width="276" height="10" rx="5" fill="#8f7758" opacity="0.38"/>
    <rect x="46" y="190" width="338" height="1" fill="#cdb894"/>
    <rect x="46" y="232" width="248" height="12" rx="6" fill="#2b2d33" opacity="0.65"/>
    <rect x="46" y="266" width="326" height="9" rx="4.5" fill="#8f7758" opacity="0.42"/>
    <rect x="46" y="290" width="288" height="9" rx="4.5" fill="#8f7758" opacity="0.33"/>
    <rect x="46" y="342" width="338" height="86" rx="18" fill="#1c1e24" opacity="0.12"/>
    <text x="64" y="394" fill="#332716" font-family="Inter, Arial, sans-serif" font-size="30" font-weight="800">₪ 12,400</text>
    <path d="M288 476 C322 446 350 446 378 476" fill="none" stroke="#9f7041" stroke-width="5" stroke-linecap="round"/>
  </g>
  <g transform="translate(152 472)">
    <rect width="370" height="96" rx="24" fill="#ffffff" opacity="0.06"/>
    <text x="28" y="39" fill="#fff1d8" font-family="Inter, Arial, sans-serif" font-size="18" font-weight="800">Self-hosted document workflow</text>
    <text x="28" y="69" fill="#cdb894" font-family="Inter, Arial, sans-serif" font-size="16">AI chat, clause memory, DOCX output</text>
  </g>
</svg>
